<?xml version="1.0" standalone="no"?>
<!DOCTYPE svg PUBLIC "-//W3C//DTD SVG 20010904//EN"
 "http://www.w3.org/TR/2001/REC-SVG-20010904/DTD/svg10.dtd">
<svg version="1.0" xmlns="http://www.w3.org/2000/svg"
 width="435.000000pt" height="435.000000pt" viewBox="0 0 435.000000 435.000000"
 preserveAspectRatio="xMidYMid meet">
<metadata>
Created by potrace 1.14, written by Peter Selinger 2001-2017
</metadata>
<g transform="translate(0.000000,435.000000) scale(0.100000,-0.100000)"
fill="#000000" stroke="none">
<path d="M1545 4250 c-38 -10 -91 -27 -116 -38 -25 -11 -63 -22 -85 -26 -123
-18 -244 -97 -320 -209 -16 -23 -31 -44 -35 -47 -22 -19 -113 -238 -124 -300
-3 -14 -11 -53 -18 -87 -29 -137 -11 -405 38 -542 21 -62 20 -66 -27 -80 -24
-7 -56 -19 -73 -26 -16 -7 -57 -23 -90 -36 -154 -58 -291 -134 -373 -207 l-32
-29 2 -1004 c2 -772 6 -1003 15 -1002 9 2 12 -48 11 -200 -1 -189 6 -342 19
-394 l5 -23 979 0 c813 0 978 2 973 13 -4 11 10 13 69 9 62 -3 75 -1 80 12 6
16 -43 124 -121 267 l-30 56 77 -38 c123 -61 252 -87 333 -66 51 13 112 73
131 129 29 86 32 104 31 165 l-1 61 82 82 c112 111 137 159 138 262 1 71 3 79
19 75 24 -7 51 18 81 73 34 63 201 387 256 495 25 50 48 92 51 95 3 3 33 61
68 130 56 110 62 129 53 153 -7 18 -18 27 -33 28 -73 4 -129 7 -268 14 -85 4
-189 8 -230 10 -41 2 -129 6 -195 9 -66 3 -170 8 -232 11 -90 4 -115 2 -127
-10 -8 -8 -64 -113 -124 -232 -60 -120 -124 -247 -142 -283 -19 -36 -34 -67
-35 -70 0 -3 -13 -27 -28 -55 l-28 -50 6 55 c3 30 17 102 31 160 14 58 28 116
31 129 2 14 6 27 8 30 2 4 6 35 9 71 27 275 5 460 -74 620 -54 110 -49 164 26
316 28 56 48 111 52 145 13 102 5 350 -13 439 -3 14 -7 41 -10 60 -8 58 -22
127 -50 240 -63 255 -176 498 -267 575 -90 76 -233 101 -373 65z m1405 -3254
c0 -15 -21 -56 -28 -56 -5 0 -14 11 -20 24 -9 21 -8 25 6 29 24 7 42 8 42 3z
m-156 -71 c17 -26 15 -28 -26 -28 -24 0 -78 24 -78 34 0 8 27 15 66 18 13 0
28 -9 38 -24z"/>
<path d="M2926 2548 c-23 -32 -20 -50 13 -82 32 -31 32 -56 -2 -93 -24 -27
-25 -84 -2 -119 8 -13 15 -40 15 -61 0 -28 3 -34 10 -23 15 23 12 62 -8 95 -9
17 -17 37 -17 45 1 17 24 62 36 70 5 4 12 20 15 38 5 26 2 35 -27 61 -30 28
-32 32 -20 57 15 34 8 42 -13 12z"/>
<path d="M3635 2420 c-17 -7 -14 -9 15 -10 97 -4 181 -40 245 -105 40 -40 75
-96 75 -120 0 -7 7 -18 16 -26 14 -11 15 -9 11 19 -14 88 -80 172 -168 215
-58 29 -158 42 -194 27z"/>
<path d="M3662 2312 c-22 -7 -12 -22 16 -22 64 -1 149 -61 178 -127 21 -49 35
-40 19 13 -16 55 -47 91 -95 112 -41 18 -101 30 -118 24z"/>
<path d="M3660 2185 c0 -6 9 -11 21 -12 11 -1 34 -16 50 -32 34 -36 39 -38 39
-13 0 21 -35 62 -53 63 -7 0 -22 2 -34 3 -13 2 -23 -2 -23 -9z"/>
<path d="M3861 1720 c-27 -25 -53 -40 -70 -40 -20 0 -22 -3 -12 -9 18 -11 76
11 100 37 25 28 47 32 96 18 56 -17 85 -11 85 18 0 12 -3 16 -8 10 -12 -18
-39 -23 -63 -10 -48 24 -81 18 -128 -24z"/>
<path d="M3650 1400 c0 -17 43 -29 64 -18 15 8 16 12 5 19 -19 12 -69 11 -69
-1z"/>
<path d="M3620 1349 c0 -5 27 -22 60 -38 33 -16 60 -27 60 -25 0 2 16 -3 36
-11 40 -16 64 -19 64 -7 -1 18 -220 100 -220 81z"/>
<path d="M3630 1282 c0 -9 25 -33 47 -46 22 -12 23 13 1 33 -22 21 -48 28 -48
13z"/>
</g>
</svg>
